<svg xmlns="http://www.w3.org/2000/svg" viewBox="0 0 120 120" fill="none">
  <rect width="120" height="120" rx="24" fill="#0D84FF"/>
  <g transform="translate(60,58) scale(0.55)" fill="white">
    <path d="M-30.5-38.5c3.3-4.2 5.5-10 4.9-15.8-4.8.2-10.5 3.2-13.9 7.2-3.1 3.6-5.7 9.3-5 14.8 5.3.4 10.7-2.7 14-6.2z"/>
    <path d="M-25.6-31.3c-7.7-.5-14.3 4.4-18 4.4s-9.3-4.2-15.4-4.1c-7.9.1-15.2 4.6-19.3 11.7C-85 -6.6-81.5 14.5-74.8 25.4c3.4 5.3 7.3 11.3 12.6 11.1 5-.2 7-3.3 13.1-3.3s7.8 3.3 13.2 3.2c5.4-.1 8.8-5.4 12.2-10.8 3.8-6.1 5.4-12.1 5.5-12.4-.1-.1-10.5-4.1-10.6-16-.1-10 8.1-14.7 8.5-15-.2 0-4.7-7.1-12.3-7.5z"/>
  </g>
</svg>
