<svg xmlns="http://www.w3.org/2000/svg" viewBox="0 0 448 512" fill="#95BF47"><path d="M388.3 104.1a4.7 4.7 0 0 0-4.4-4c-2 0-37.2-.8-37.2-.8s-29.5-27.3-32.8-30.6c-3.2-3.2-9.6-2.3-12.1-1.5-0.4 0.1-6.6 2-17 5.3-10.1-29.2-27.9-56.1-59.3-56.1h-2.7c-8.8-11.4-19.7-16.4-28.9-16.4C135.7 0 101 47.3 90.4 83.6c-27.4 8.5-46.7 14.5-49.2 15.3C28.2 103 28 103.8 27.6 116.6L0 399.7l293.7 51.6 157.3-38.8c0-.3-62.4-406.7-62.7-408.4zM268 92c-10.6 3.3-22.5 7-35.1 10.9V96c0-17.2-2.4-31.1-6.3-42.3 15.7 2.9 26.2 19.5 32.3 37.3l9.1 1zm-55.7-48c4.3 10.7 7.1 25.9 7.1 46.7v3.6l-60 18.5c11.6-44.6 33.2-59.2 52.9-68.8zM175.2 8.3c3 0 6 1 8.9 2.9-19.7 9.3-40.8 32.8-49.7 79.7l-47.5 14.7C97 67.3 125.2 8.3 175.2 8.3z"/><path d="M383.9 100.1c-2 0-37.2-.8-37.2-.8s-29.5-27.3-32.8-30.6c-1.2-1.2-2.8-1.8-4.5-2l-21.7 443.4 157.3-38.8-62.7-408.4a4.7 4.7 0 0 0-4.4-4c0 .1 2.5 41.3 6 41.2z" fill="#5E8E3E"/></svg>
